<?xml version="1.0" encoding="UTF-8" standalone="no"?>
<!-- Created with Inkscape (http://www.inkscape.org/) -->

<svg
   width="135.23781mm"
   height="34.318573mm"
   viewBox="0 0 135.23781 34.318573"
   version="1.1"
   id="svg5"
   xml:space="preserve"
   xmlns:inkscape="http://www.inkscape.org/namespaces/inkscape"
   xmlns:sodipodi="http://sodipodi.sourceforge.net/DTD/sodipodi-0.dtd"
   xmlns:xlink="http://www.w3.org/1999/xlink"
   xmlns="http://www.w3.org/2000/svg"
   xmlns:svg="http://www.w3.org/2000/svg"><sodipodi:namedview
     id="namedview7"
     pagecolor="#ffffff"
     bordercolor="#000000"
     borderopacity="0.25"
     inkscape:showpageshadow="2"
     inkscape:pageopacity="0.0"
     inkscape:pagecheckerboard="0"
     inkscape:deskcolor="#d1d1d1"
     inkscape:document-units="mm"
     showgrid="false" /><defs
     id="defs2" /><g
     inkscape:label="Layer 1"
     inkscape:groupmode="layer"
     id="layer1"
     transform="translate(-6.1250063,-11.470701)"><g
       id="logo-group"
       transform="matrix(0.26458333,0,0,0.26458333,-61.723477,-72.97001)"><image
         xlink:href=""
         id="container"
         x="272"
         y="144"
         width="480"
         height="480"
         style="display:none" /><g
         id="logo-center"><image
           xlink:href=""
           id="icon_container"
           x="0"
           y="0"
           style="display:none" /><g
           id="slogan"
           style="font-style:normal;font-weight:normal;font-size:32px;line-height:1;font-family:'Brandmark Sans 32 Color';font-variant-ligatures:none;text-align:center;text-anchor:middle"><path
             id="path591717"
             style="font-style:normal;font-weight:normal;font-size:32px;line-height:1;font-family:'Brandmark Sans 32 Color';font-variant-ligatures:none;text-align:center;text-anchor:middle"
             d="m 429.954,0.32 c 6.144,0 10.24,-2.784 11.456,-8 h -4.896 c -0.896,2.592 -2.976,3.2 -6.56,3.2 -4.704,0 -7.04,-1.632 -7.04,-6.72 0,-4.96 2.112,-6.72 7.04,-6.72 3.424,0 5.6,0.576 6.528,3.2 h 4.928 c -1.184,-5.056 -5.088,-8 -11.456,-8 -7.392,0 -11.84,4.032 -11.84,11.52 0,7.2 4.16,11.52 11.84,11.52 z"
             stroke-width="0"
             stroke-linejoin="miter"
             stroke-miterlimit="2"
             fill="#b3cee5"
             stroke="#b3cee5"
             transform="matrix(1.5,0,0,1.5,-255.97862,448.374)" /><path
             id="path591719"
             style="font-style:normal;font-weight:normal;font-size:32px;line-height:1;font-family:'Brandmark Sans 32 Color';font-variant-ligatures:none;text-align:center;text-anchor:middle"
             d="m 451.6105,0.32 c 3.136,0 4.96,-0.832 6.016,-2.4 V 0 h 4.48 v -17.6 h -4.48 v 2.048 c -1.024,-1.536 -2.848,-2.368 -6.016,-2.368 -6.176,0 -9.216,3.168 -9.216,9.12 0,5.696 2.816,9.12 9.216,9.12 z m -4.736,-9.12 c 0,-3.136 1.984,-4.8 5.376,-4.8 3.488,0 5.376,1.792 5.376,4.8 0,3.136 -1.984,4.8 -5.376,4.8 -3.488,0 -5.376,-1.792 -5.376,-4.8 z"
             stroke-width="0"
             stroke-linejoin="miter"
             stroke-miterlimit="2"
             fill="#b3cee5"
             stroke="#b3cee5"
             transform="matrix(1.5,0,0,1.5,-255.97862,448.374)" /><path
             id="path591721"
             style="font-style:normal;font-weight:normal;font-size:32px;line-height:1;font-family:'Brandmark Sans 32 Color';font-variant-ligatures:none;text-align:center;text-anchor:middle"
             d="M 463.9265,-17.6 V 0 h 4.48 v -8.384 c 0,-2.752 2.464,-5.376 6.592,-5.376 h 1.984 v -3.84 h -1.984 c -3.072,0 -5.28,0.864 -6.592,3.04 v -3.04 z"
             stroke-width="0"
             stroke-linejoin="miter"
             stroke-miterlimit="2"
             fill="#b3cee5"
             stroke="#b3cee5"
             transform="matrix(1.5,0,0,1.5,-255.97862,448.374)" /><path
             id="path591723"
             style="font-style:normal;font-weight:normal;font-size:32px;line-height:1;font-family:'Brandmark Sans 32 Color';font-variant-ligatures:none;text-align:center;text-anchor:middle"
             d="m 485.053,0 h 5.504 v -4.16 h -4.512 c -1.216,0 -2.272,-0.48 -2.272,-2.208 v -7.392 h 6.784 v -3.84 h -6.784 v -4.8 h -4.48 v 4.8 h -2.304 v 3.84 h 2.304 v 7.52 c 0,4.992 2.912,6.24 5.76,6.24 z"
             stroke-width="0"
             stroke-linejoin="miter"
             stroke-miterlimit="2"
             fill="#b3cee5"
             stroke="#b3cee5"
             transform="matrix(1.5,0,0,1.5,-255.97862,448.374)" /><path
             id="path591725"
             style="font-style:normal;font-weight:normal;font-size:32px;line-height:1;font-family:'Brandmark Sans 32 Color';font-variant-ligatures:none;text-align:center;text-anchor:middle"
             d="m 504.789,-22.4 h -4.8 V 0 h 17.6 v -4.16 h -12.8 z"
             stroke-width="0"
             stroke-linejoin="miter"
             stroke-miterlimit="2"
             fill="#b3cee5"
             stroke="#b3cee5"
             transform="matrix(1.5,0,0,1.5,-255.97862,448.374)" /><path
             id="path591727"
             style="font-style:normal;font-weight:normal;font-size:32px;line-height:1;font-family:'Brandmark Sans 32 Color';font-variant-ligatures:none;text-align:center;text-anchor:middle"
             d="m 527.298,0.32 c 3.136,0 4.96,-0.832 6.016,-2.4 V 0 h 4.48 v -17.6 h -4.48 v 2.048 c -1.024,-1.536 -2.848,-2.368 -6.016,-2.368 -6.176,0 -9.216,3.168 -9.216,9.12 0,5.696 2.816,9.12 9.216,9.12 z m -4.736,-9.12 c 0,-3.136 1.984,-4.8 5.376,-4.8 3.488,0 5.376,1.792 5.376,4.8 0,3.136 -1.984,4.8 -5.376,4.8 -3.488,0 -5.376,-1.792 -5.376,-4.8 z"
             stroke-width="0"
             stroke-linejoin="miter"
             stroke-miterlimit="2"
             fill="#b3cee5"
             stroke="#b3cee5"
             transform="matrix(1.5,0,0,1.5,-255.97862,448.374)" /><path
             id="path591729"
             style="font-style:normal;font-weight:normal;font-size:32px;line-height:1;font-family:'Brandmark Sans 32 Color';font-variant-ligatures:none;text-align:center;text-anchor:middle"
             d="M 552.6655,-9.6 V 0 h 4.48 v -9.6 c 0,-2.592 1.344,-4 4.192,-4 2.944,0 4.192,1.536 4.192,4 V 0 h 4.48 v -9.6 c 0,-5.184 -2.848,-8.32 -7.712,-8.32 -3.456,0 -5.44,1.088 -6.496,3.136 -1.28,-2.016 -3.456,-3.136 -6.368,-3.136 -2.656,0 -4.224,0.64 -5.152,1.856 V -17.6 h -4.48 V 0 h 4.48 v -9.6 c 0,-2.592 1.344,-4 4.192,-4 2.944,0 4.192,1.536 4.192,4 z"
             stroke-width="0"
             stroke-linejoin="miter"
             stroke-miterlimit="2"
             fill="#b3cee5"
             stroke="#b3cee5"
             transform="matrix(1.5,0,0,1.5,-255.97862,448.374)" /><path
             id="path591731"
             style="font-style:normal;font-weight:normal;font-size:32px;line-height:1;font-family:'Brandmark Sans 32 Color';font-variant-ligatures:none;text-align:center;text-anchor:middle"
             d="m 580.4855,0.32 c 3.136,0 4.96,-0.832 6.016,-2.4 V 0 h 4.48 v -17.6 h -4.48 v 2.048 c -1.024,-1.536 -2.848,-2.368 -6.016,-2.368 -6.176,0 -9.216,3.168 -9.216,9.12 0,5.696 2.816,9.12 9.216,9.12 z m -4.736,-9.12 c 0,-3.136 1.984,-4.8 5.376,-4.8 3.488,0 5.376,1.792 5.376,4.8 0,3.136 -1.984,4.8 -5.376,4.8 -3.488,0 -5.376,-1.792 -5.376,-4.8 z"
             stroke-width="0"
             stroke-linejoin="miter"
             stroke-miterlimit="2"
             fill="#b3cee5"
             stroke="#b3cee5"
             transform="matrix(1.5,0,0,1.5,-255.97862,448.374)" /><path
             id="path591733"
             style="font-style:normal;font-weight:normal;font-size:32px;line-height:1;font-family:'Brandmark Sans 32 Color';font-variant-ligatures:none;text-align:center;text-anchor:middle"
             d="M 592.8015,-17.6 V 0 h 4.48 v -8.384 c 0,-2.752 2.464,-5.376 6.592,-5.376 h 1.984 v -3.84 h -1.984 c -3.072,0 -5.28,0.864 -6.592,3.04 v -3.04 z"
             stroke-width="0"
             stroke-linejoin="miter"
             stroke-miterlimit="2"
             fill="#b3cee5"
             stroke="#b3cee5"
             transform="matrix(1.5,0,0,1.5,-255.97862,448.374)" /></g><g
           id="title"
           style="font-style:normal;font-weight:normal;font-size:72px;line-height:1;font-family:'Brandmark Sans 32 Color';font-variant-ligatures:normal;text-align:center;text-anchor:middle"><g
             id="path591736"
             aria-label="K"
             transform="matrix(1.65,0,0,1.65,-332.74152,402.306)"><path
               class="c1"
               d="M 86.32155,71.91547 V 92.29325 L 105.7632,71.91547 h 12.96118 l -20.44995,21.45785 23.33008,28.9465 h -13.68115 l -16.99341,-21.24185 -4.6084,4.82443 v 16.41742 H 75.52052 V 71.91547 Z"
               transform="translate(281.55629,-122.31547)"
               stroke-width="0"
               stroke-linejoin="miter"
               stroke-miterlimit="2"
               fill="#b3cee5"
               stroke="#b3cee5"
               id="path30" /></g><g
             id="path591738"
             aria-label="e"
             transform="matrix(1.65,0,0,1.65,-332.74152,402.306)"><path
               class="c1"
               d="m 76.42018,102.51809 c 0,-13.39313 8.28076,-20.52179 22.17798,-20.52179 14.40112,0 22.17786,7.70471 22.17786,20.52179 v 1.51215 h -34.203 c 0.57605,5.83252 4.75244,9.28882 12.02515,9.28882 5.25635,0 9.00073,-1.72815 10.80078,-5.18445 H 120.272 c -2.16016,9.72083 -9.93689,14.90527 -21.67383,14.90527 -14.40138,0 -22.17799,-7.70465 -22.17799,-20.52179 z m 32.90686,-5.83246 c -1.87219,-3.16833 -5.47253,-4.96844 -10.72888,-4.96844 -5.11255,0 -8.85681,1.72815 -10.729,4.96844 z"
               transform="translate(321.29726,-122.3163)"
               stroke-width="0"
               stroke-linejoin="miter"
               stroke-miterlimit="2"
               fill="#b3cee5"
               stroke="#b3cee5"
               id="path33" /></g><g
             id="path591740"
             aria-label="n"
             transform="matrix(1.65,0,0,1.65,-332.74152,402.306)"><path
               class="c1"
               d="m 98.56227,91.71719 c -6.40845,0 -10.8728,3.16827 -10.8728,9.00079 v 21.60181 H 77.60841 v -39.6034 h 10.08105 v 4.46436 c 2.37622,-3.38428 6.40845,-5.18445 13.03296,-5.18445 10.94507,0 18.7937,7.05664 18.7937,18.72168 v 21.60181 h -10.08081 v -21.60181 c 1e-5,-5.5445 -4.24828,-9.00079 -10.87304,-9.00079 z"
               transform="translate(367.07778,-122.3163)"
               stroke-width="0"
               stroke-linejoin="miter"
               stroke-miterlimit="2"
               fill="#b3cee5"
               stroke="#b3cee5"
               id="path36" /></g><g
             id="path591742"
             aria-label="d"
             transform="matrix(1.65,0,0,1.65,-332.74152,402.306)"><path
               class="c1"
               d="m 76.38448,102.51809 c 0,-13.39313 6.84058,-20.52179 20.73779,-20.52179 7.1286,0 11.23297,1.87219 13.53717,5.32849 v -15.4093 h 10.08087 v 50.4043 h -10.08087 v -4.68036 c -2.37622,3.52826 -6.48059,5.40045 -13.53717,5.40045 -14.40125,0 -20.73779,-7.70465 -20.73779,-20.52179 z m 22.17791,10.80096 c 7.63263,0 12.09705,-3.74432 12.09705,-10.80096 0,-6.76855 -4.24841,-10.8009 -12.09705,-10.8009 -7.63269,0 -12.09705,3.74432 -12.09705,10.8009 1e-5,6.76862 4.24836,10.80096 12.09705,10.80096 z"
               transform="translate(413.02046,-122.31549)"
               stroke-width="0"
               stroke-linejoin="miter"
               stroke-miterlimit="2"
               fill="#b3cee5"
               stroke="#b3cee5"
               id="path39" /></g><g
             id="path591744"
             aria-label="r"
             transform="matrix(1.65,0,0,1.65,-332.74152,402.306)"><path
               class="c1"
               d="m 83.87233,82.71639 h 10.08081 v 6.84058 c 2.95239,-4.89642 7.9209,-6.84058 14.8335,-6.84058 h 4.46436 v 8.64075 h -4.46436 c -9.28882,0 -14.8335,5.90454 -14.8335,12.09705 v 18.8656 H 83.87233 Z"
               transform="translate(453.76698,-122.31639)"
               stroke-width="0"
               stroke-linejoin="miter"
               stroke-miterlimit="2"
               fill="#b3cee5"
               stroke="#b3cee5"
               id="path42" /></g><g
             id="path591746"
             aria-label="i"
             transform="matrix(1.65,0,0,1.65,-332.74152,402.306)"><path
               class="c1"
               d="m 103.60133,82.71639 v 39.60339 H 93.52052 V 82.71639 Z"
               transform="translate(475.05629,-122.31549)"
               stroke-width="0"
               stroke-linejoin="miter"
               stroke-miterlimit="2"
               fill="#b3cee5"
               stroke="#b3cee5"
               id="path45" /><rect
               x="93.520523"
               y="71.915489"
               class="c3"
               width="10.08081"
               height="6.4805298"
               transform="translate(475.05629,-122.31549)"
               stroke-width="0"
               stroke-linejoin="miter"
               stroke-miterlimit="2"
               fill="#f7cac9"
               stroke="#f7cac9"
               id="rect47" /></g><g
             id="path591748"
             aria-label="c"
             transform="matrix(1.65,0,0,1.65,-332.74152,402.306)"><path
               class="c1"
               d="m 98.70631,91.71719 c -7.63269,0 -12.09705,3.74432 -12.09705,10.8009 0,6.76862 4.24841,10.80096 12.09705,10.80096 5.90454,0 9.93689,-2.23218 11.44897,-6.55261 h 10.44092 c -1.65613,10.65698 -9.57678,16.27344 -21.88989,16.27344 -14.40125,0 -22.17786,-7.70465 -22.17786,-20.52179 0,-13.39313 8.28064,-20.52179 22.17786,-20.52179 12.6731,0 20.23376,5.97656 21.81787,16.12939 h -10.44092 c -1.51208,-4.1043 -5.40038,-6.4085 -11.37695,-6.4085 z"
               transform="translate(505.40774,-122.3163)"
               stroke-width="0"
               stroke-linejoin="miter"
               stroke-miterlimit="2"
               fill="#b3cee5"
               stroke="#b3cee5"
               id="path50" /></g><g
             id="path591750"
             aria-label="k"
             transform="matrix(1.65,0,0,1.65,-332.74152,402.306)"><path
               class="c1"
               d="m 89.59767,71.91549 v 27.07434 l 14.32935,-16.27344 h 12.24097 l -16.05737,17.92957 17.49756,21.67383 H 105.3672 l -11.66504,-14.61725 -4.10449,4.6084 v 10.00885 H 79.51686 v -50.4043 z"
               transform="translate(549.24745,-122.31549)"
               stroke-width="0"
               stroke-linejoin="miter"
               stroke-miterlimit="2"
               fill="#b3cee5"
               stroke="#b3cee5"
               id="path53" /></g></g><image
           xlink:href=""
           id="icon"
           x="0"
           y="0"
           style="display:none" /></g></g></g></svg>
